ply
format ascii 1.0
element vertex 428
property float x
property float y
property float z
property uchar red
property uchar green
property uchar blue
element edge 321
property int vertex1
property int vertex2
end_header
-0.3215789794921875 -7.529991149902344 152.19000244140625 255 0 0
-0.3215789882344652 -7.329991149902344 152.19000225498496 255 0 0
-0.5215789794921875 -7.529991158644622 152.19000244140625 0 255 0
-0.32157897949219566 -7.529990963481066 152.39000244140624 0 0 255
-0.4225893020629883 -14.284564018249512 134.8166961669922 255 0 0
-0.4225892956167094 -14.432037687301635 134.95179435014725 255 0 0
-0.6225790977478027 -14.283199398871512 134.81818580003454 0 255 0
-0.42460949812084436 -14.419655311107636 134.66923002004623 0 0 255
-0.5235991477966309 2.4296791553497314 143.06407165527344 255 0 0
-0.5235991485609267 2.4471642062067986 142.86483744382858 255 0 0
-0.7235583305358887 2.425654213130474 143.0637184219202 0 255 0
-0.5276395604014397 2.6288727045059206 143.0815531373024 0 0 255
-0.6246094703674316 -15.462357521057129 148.2716064453125 255 0 0
-0.6246094756865794 -15.34066960811615 148.43032648563386 255 0 0
-0.8245176196098327 -15.45754783153534 148.26791893281043 0 255 0
-0.6306700691580772 -15.621004664897919 148.39323847293855 0 0 255
-0.7256193161010742 -5.789609909057617 132.3509063720703 255 0 0
-0.725619307492434 -5.98655264377594 132.31607018113135 255 0 0
-0.9254559993743896 -5.791017440706492 132.35886365398764 0 255 0
-0.7337001256644726 -5.754802164435387 132.15412446260453 0 0 255
-0.826629638671875 -2.1695618629455566 150.6167755126953 255 0 0
-0.8266296460482152 -2.0008108735084535 150.50942978858947 255 0 0
-1.0263743996620178 -2.1749833725392818 150.60825273543597 0 255 0
-0.8367306530475617 -2.0623531341552734 150.7853111386299 0 0 255
-0.9276394844055176 -17.16939926147461 139.59873962402344 255 0 0
-0.9276394821359911 -17.22131997346878 139.79188268184663 255 0 0
-1.127271842956543 -17.157693631201983 139.6018863338977 0 255 0
-0.9397606879472733 -17.36218727827072 139.54691435098647 0 0 255
-1.0286498069763184 1.322270154953003 137.59246826171875 255 0 0
-1.0286498029469358 1.230088621377945 137.41497864723206 255 0 0
-1.2281492352485657 1.3097203746438026 137.59898614808918 0 255 0
-1.0427912294864654 1.4993155360221864 137.5005174458027 0 0 255
-1.1296601295471191 -10.949159622192383 151.55250549316406 255 0 0
-1.1296601377589284 -10.761295318603516 151.62111308574677 255 0 0
-1.329006063938141 -10.943615582957865 151.53732453882694 0 255 0
-1.1458217427134514 -11.017542845010757 151.73975541591645 0 0 255
-1.2306699752807617 -11.329771041870117 132.98483276367188 255 0 0
-1.2306699671998786 -11.514640092849731 133.06114420294762 255 0 0
-1.4298418164253235 -11.322833646833896 133.0016390413046 0 255 0
-1.248851791024208 -11.405766493082046 132.8007292151451 0 0 255
-1.3316798210144043 1.4810218811035156 146.4067840576172 255 0 0
-1.3316798247197768 1.5657909214496613 146.22563712596894 255 0 0
-1.530656898021698 1.4627242028713225 146.39822152853012 0 255 0
-1.3518818482756614 1.6612423181533813 146.4911195397377 0 0 255
-1.432690143585205 -17.012556076049805 145.16432189941406 255 0 0
-1.4326901462016348 -16.952699142694474 145.35515466928481 255 0 0
-1.6314517378807067 -16.991352443397044 145.15767112895847 0 255 0
-1.454912357032299 -17.20220720767975 145.22380819916725 0 0 255
-1.5337004661560059 -2.552900791168213 133.6016845703125 255 0 0
-1.533700458592086 -2.725943112373352 133.50140320062638 255 0 0
-1.7322257876396179 -2.5650561168789863 133.62265939563514 0 255 0
-1.5579428926110268 -2.4533588349819184 133.42991815805436 0 0 255
-1.6347103118896484 -5.401390075683594 151.8721923828125 255 0 0
-1.634710320428018 -5.206054949760437 151.82924835681916 255 0 0
-1.8329784989356994 -5.407029198855161 151.8465423166752 0 255 0
-1.6609729409217835 -5.358817905187607 152.065836083889 0 0 255
-1.7357206344604492 -15.628417015075684 136.4965057373047 255 0 0
-1.7357206294325132 -15.743442785739898 136.66011830568314 255 0 0
-1.9337107419967652 -15.605279894173146 136.51277200728654 0 255 0
-1.7640034556388855 -15.790385365486145 136.3826359152794 0 0 255
-1.8367304801940918 2.272587299346924 140.9197235107422 255 0 0
-1.836730479070607 2.246884959936142 140.72138191461562 255 0 0
-2.034421467781067 2.2425355345010756 140.92361780442297 0 255 0
-1.8670335173606873 2.4686390280723574 140.89431790709494 0 0 255
-1.9377408027648926 -13.889741897583008 149.73597717285156 255 0 0
-1.9377408094496709 -13.736811995506287 149.86486644744872 255 0 0
-2.1351115465164185 -13.868911316990852 149.71126122921706 0 255 0
-1.970064029097557 -14.016936755180359 149.88689661026 0 0 255
-2.038750648498535 -7.937047958374023 132.34695434570312 255 0 0
-2.038750639763723 -8.136877167224885 132.35521809011698 255 0 0
-2.235779905319214 -7.935628940258175 132.38126844763755 0 255 0
-2.07309407889843 -7.945188956707716 132.15009334087372 0 0 255
-2.139760971069336 -0.5937659740447998 149.16014099121094 255 0 0
-2.1397609772661164 -0.45200016498565676 149.01906492710114 255 0 0
-2.336427402496338 -0.6194161742925643 149.13436539173125 0 255 0
-2.1761246114969253 -0.4550413489341736 149.29954386949538 0 0 255
-2.2407708168029785 -17.33363151550293 141.73667907714844 255 0 0
-2.240770816399167 -17.34286964982748 141.93646560907365 255 0 0
-2.4370529651641846 -17.29528866112232 141.73845205213874 0 255 0
-2.2791546404361727 -17.52970416545868 141.72761267274618 0 0 255
-2.3417811393737793 -0.01047392189502716 135.91500854492188 255 0 0
-2.341781133772515 -0.1386159211397171 135.76145194768907 255 0 0
-2.537657415866852 -0.041495466232299806 135.940895819664 0 255 0
-2.3821851879358293 0.13991654813289645 135.78950865268706 0 0 255
-2.44279146194458 -8.83311653137207 151.8751678466797 255 0 0
-2.4427914706087854 -8.634902620315552 151.90183706879617 255 0 0
-2.638240134716034 -8.827459432184696 151.83312247097493 0 255 0
-2.4852157056331636 -8.859178856015205 152.0688710808754 0 0 255
-2.5438013076782227 -13.098518371582031 134.18667602539062 255 0 0
-2.5438013005020546 -13.262689960002898 134.30090252161025 255 0 0
-2.738800513744354 -13.073134717345237 134.22315859794617 0 255 0
-2.588245743513107 -13.209888756275177 134.02660937309264 0 0 255
-2.6448111534118652 1.9592268466949463 144.3247528076172 255 0 0
-2.6448111553306255 2.0031229704618454 144.12962943315506 255 0 0
-2.8393388867378233 1.913895145058632 144.31455471813678 0 255 0
-2.691275808215141 2.1490113854408266 144.36744787395 0 0 255
-2.745821475982666 -15.947649002075195 147.0135040283203 255 0 0
-2.7458214803291656 -15.848212677240372 147.1870333313942 255 0 0
-2.9398555397987365 -15.905581307411193 146.98939825594425 0 255 0
-2.794306311011314 -16.116001975536346 147.10997419953347 0 0 255
-2.846831798553467 -4.589160919189453 132.97183227539062 255 0 0
-2.8468317902247606 -4.779699516296387 132.91104541420935 255 0 0
-3.0403498649597167 -4.604511144757271 133.01994808018208 0 255 0
-2.897336846590042 -4.530344140529633 132.78746896982193 0 0 255
-2.9478416442871094 -3.482994318008423 150.94924926757812 255 0 0
-2.9478416522232687 -3.301436161994934 150.86536459922792 255 0 0
-3.140821170806885 -3.505024643242359 150.90156732797624 0 255 0
-3.0003669023513795 -3.4020542025566103 151.12443430423735 0 0 255
-3.048851490020752 -16.40503692626953 138.4757537841797 255 0 0
-3.0488514866457046 -16.482249015569685 138.66024848222733 255 0 0
-3.2412697672843933 -16.35472019314766 138.49681162685155 0 255 0
-3.103396940231323 -16.5825376868248 138.4014687001705 0 0 255
-3.1498618125915527 1.495635747909546 138.94366455078125 255 0 0
-3.1498618096327013 1.4279451191425323 138.75546790361403 255 0 0
-3.3416959285736083 1.4424084067344665 138.9628093764186 0 255 0
-3.206427478790283 1.6761484384536742 138.87873769402503 0 0 255
-3.2508721351623535 -11.978221893310547 150.6536102294922 255 0 0
-3.2508721429009286 -11.801183927059174 150.7466562330723 255 0 0
-3.4420989513397218 -11.950966003537179 150.60175062417983 0 255 0
-3.3094579875469208 -12.067186349630356 150.82288225889207 0 0 255
-3.3518824577331543 -9.959061622619629 132.97496032714844 255 0 0
-3.3518824492796364 -10.152455580234527 133.02593851685523 255 0 0
-3.54247864484787 -9.943613694608212 133.033564555645 0 255 0
-3.4124885201454163 -10.007642868161202 132.79065957069398 0 0 255
-3.452892780303955 0.4582703113555908 147.32638549804688 255 0 0
-3.452892785032106 0.5664377927780151 147.1581600666046 255 0 0
-3.642834746837616 0.40559365749359133 147.29251487255095 0 255 0
-3.515519046783447 0.6180356621742249 147.4291132211685 0 0 255
-3.5539021492004395 -16.85646629333496 143.7928466796875 255 0 0
-3.5539021506811785 -16.82259092926979 143.98995695114135 255 0 0
-3.7431660771369932 -16.792753887176513 143.78189706727863 0 255 0
-3.618548607826233 -17.042995619773865 143.824903601408 0 0 255
-3.6549124717712402 -1.7571569681167603 134.73593139648438 255 0 0
-3.6549124648593874 -1.9152817249298095 134.61347094774246 255 0 0
-3.843474280834198 -1.797977125644684 134.78863964676856 0 255 0
-3.7215791404247285 -1.6417001485824585 134.58684993982314 0 0 255
-3.755922794342041 -6.7545599937438965 151.54969787597656 255 0 0
-3.7559228030544687 -6.555242872238159 151.53318472504617 255 0 0
-3.9437581300735474 -6.760231185331941 151.48124552965163 0 255 0
-3.8246096670627594 -6.739051230251789 151.73689186573029 0 0 255
-3.8569321632385254 -14.396602630615234 135.83775329589844 255 0 0
-3.8569321573018307 -14.532418370246887 135.98456639051437 255 0 0
-4.044016396999359 -14.34469901919365 135.88576896190642 0 255 0
-3.927639228105545 -14.533934712409973 135.71070837974548 0 0 255
-3.957942485809326 1.7852997779846191 142.23544311523438 255 0 0
-3.957942485851977 1.7862755172885953 142.03544549942018 255 0 0
-4.144250679016113 1.7125733613967895 142.23508830093778 0 255 0
-4.030669766664505 1.9716057538986207 142.23635205635802 0 0 255
-4.058952808380127 -14.399828910827637 148.42198181152344 255 0 0
-4.058952814253939 -14.265451753139496 148.57011276483536 255 0 0
-4.244459724426269 -14.34446684718132 148.37176005244254 0 255 0
-4.133700269460678 -14.53722549676895 148.5466212749481 0 0 255
-4.159963130950928 -6.677853107452393 132.9954071044922 255 0 0
-4.159963122245955 -6.8769996643066404 132.97695041298866 255 0 0
-4.344643187522888 -6.6849375031888485 133.07184720039368 0 255 0
-4.2367308139801025 -6.660810196399689 132.8115151166916 0 0 255
-4.2609734535217285 -1.9732602834701538 149.51145935058594 255 0 0
-4.260973460485468 -1.8139484763145446 149.39054720401765 255 0 0
-4.4448007345199585 -2.0208923488855364 149.44870015382767 0 255 0
-4.339761334657669 -1.862125527858734 149.6578886270523 0 0 255
-4.361982822418213 -16.529699325561523 140.5527801513672 255 0 0
-4.361982820853496 -16.565495878458023 140.7495505928993 255 0 0
-4.544931054115295 -16.450196129083633 140.56724340319633 0 255 0
-4.442790889739991 -16.709693348407747 140.5200355708599 0 0 255
-4.462993144989014 0.173704132437706 137.34214782714844 255 0 0
-4.462993140332822 0.06718288362026215 137.1728752017021 255 0 0
-4.645035660266876 0.10360132157802582 137.38626268804074 0 255 0
-4.545821434259414 0.3277782052755356 137.24519084692002 0 0 255
-4.5640034675598145 -9.923468589782715 150.92344665527344 255 0 0
-4.564003475991194 -9.73058111667633 150.976308965683 255 0 0
-4.745113205909729 -9.901042164862156 150.84161561727524 0 255 0
-4.648851943016052 -9.971337988972664 151.09811565876007 0 0 255
-4.665012836456299 -11.642568588256836 134.17617797851562 255 0 0
-4.665012828678418 -11.82050576210022 134.26749260425566 255 0 0
-4.845162308216095 -11.602906689047813 134.25346382260324 0 255 0
-4.7518815159797665 -11.724819999933242 134.0159015417099 0 0 255
-4.766024112701416 0.8694124817848206 145.30397033691406 255 0 0
-4.766024115740372 0.9389356911182404 145.11644294261933 255 0 0
-4.945185399055481 0.7860669672489167 145.27307113111019 0 255 0
-4.854913008213043 1.037400722503662 145.36624967455865 0 0 255
-4.8670334815979 -15.779841423034668 145.5484161376953 255 0 0
-4.867033484894119 -15.704432743787766 145.73365526199342 255 0 0
-5.045178186893463 -15.695641821622848 145.51413946449756 0 255 0
-4.957942569255829 -15.944838273525239 145.61558442115785 0 0 255
-4.968043804168701 -3.7377848625183105 134.1881561279297 255 0 0
-4.968043796268687 -3.9185161113739015 134.10250441431998 255 0 0
-5.145143067836761 -3.777582636475563 134.2721322655678 0 255 0
-5.060973101854325 -3.6619405925273893 134.0281192779541 0 0 255
-5.069054126739502 -4.936927795410156 150.60055541992188 255 0 0
-5.069054135093732 -4.745805275440216 150.54163017868996 255 0 0
-5.245078539848327 -4.964902412891388 150.50982049107552 0 255 0
-5.164003616571426 -4.885066395998001 150.76876657009126 0 0 255
-5.170063495635986 -15.075641632080078 137.76783752441406 255 0 0
-5.170063491215701 -15.176765978336334 137.94038858413697 255 0 0
-5.3449831247329715 -14.991980516910553 137.8168675124645 0 255 0
-5.267033189535141 -15.226554465293884 137.67939435839654 0 0 255
-5.271073818206787 0.9655485153198242 140.3656768798828 255 0 0
-5.27107381637132 0.923557922244072 140.17013458013534 255 0 0
-5.444858169555664 0.8687649428844452 140.38646010309458 0 255 0
-5.370063728094101 1.1354594707489014 140.32919034063815 0 0 255
-5.372084140777588 -12.5282621383667 149.226318359375 255 0 0
-5.372084147904708 -12.365212631225585 149.34214088916778 255 0 0
-5.544702100753784 -12.469765919446946 149.14397012591363 0 255 0
-5.473094236850739 -12.628227388858795 149.3670447230339 0 0 255
-5.473094463348389 -8.589991569519043 133.684814453125 255 0 0
-5.473094454673224 -8.788456201553345 133.70954886227847 255 0 0
-5.6445142984390255 -8.577249608933926 133.78705381155015 0 255 0
-5.576124763488769 -8.611191415786744 133.51471058130264 0 0 255
-5.5741047859191895 -1.050071120262146 147.70556640625 255 0 0
-5.574104791585662 -0.9204373359680176 147.55326708555222 255 0 0
-5.74429407119751 -1.130066728591919 147.63747593164445 0 255 0
-5.6791552901268005 -0.9204725623130798 147.81587780714034 0 0 255
-5.675114154815674 -15.97066879272461 142.49781799316406 255 0 0
-5.6751141551342785 -15.963379957526922 142.69768513441085 255 0 0
-5.84403977394104 -15.863669228553771 142.49391588941216 0 255 0
-5.782184851169586 -16.13948220014572 142.50397434830666 0 0 255
-5.776124477386475 -1.5602482557296753 136.30697631835938 255 0 0
-5.776124471250146 -1.7006310939788818 136.16452400684358 255 0 0
-5.943752562999725 -1.637949526309967 136.3835487782955 0 255 0
-5.885215389728546 -1.440853214263916 136.18931578397752 0 0 255
-5.877134799957275 -7.954578876495361 150.4939422607422 255 0 0
-5.877134808688148 -7.754839789867401 150.50415487512947 255 0 0
-6.043430685997009 -7.948905209079385 150.38297609090804 0 255 0
-5.988245916366577 -7.963070460408926 150.66002119779586 0 0 255
-5.97814416885376 -12.782604217529297 135.83285522460938 255 0 0
-5.978144162114342 -12.93678413629532 135.96024656295776 255 0 0
-6.143072354793548 -12.71054447889328 135.92006810307504 0 255 0
-6.091275477409363 -12.887656331062317 135.7057121515274 0 0 255
-6.079155445098877 0.5677732825279236 143.3197784423828 255 0 0
-6.079155446306884 0.5954092592000961 143.12169700860977 255 0 0
-6.242679536342621 0.45372638702392576 143.30386682003737 0 255 0
-6.194306969642639 0.7297287106513977 143.34237418174743 0 0 255
-6.180164813995361 -14.204840660095215 146.78602600097656 255 0 0
-6.180164818953294 -14.091416382789612 146.9507528424263 255 0 0
-6.342247474193573 -14.10833403468132 146.71957541704177 0 255 0
-6.297336530685425 -14.338337481021881 146.87794654369355 0 0 255
-6.281175136566162 -5.72934103012085 134.36434936523438 255 0 0
-6.2811751280465105 -5.924247944355011 134.31950189769267 255 0 0
-6.441778028011322 -5.756068316102028 134.4805060148239 0 255 0
-6.4003670573234555 -5.693327870965004 134.2078362941742 0 0 255
-6.382185459136963 -3.609039306640625 149.11062622070312 255 0 0
-6.382185466743283 -3.43502699136734 149.01203761696814 255 0 0
-6.541269147396088 -3.6687899827957153 149.00516420602798 0 255 0
-6.503397583961487 -3.5306201219558715 149.24903882741927 0 0 255
-6.483194828033447 -15.021830558776855 139.75958251953125 255 0 0
-6.4831948253357705 -15.083546209335328 139.949822306633 255 0 0
-6.64071878194809 -14.904612112045289 139.7976093351841 0 255 0
-6.606427145004273 -15.171667170524596 139.7109740525484 0 0 255
-6.584205150604248 -0.4368845820426941 138.95469665527344 255 0 0
-6.584205146976291 -0.5198825776576996 138.77273145914077 255 0 0
-6.740127575397492 -0.5508426070213318 139.00667520165445 0 255 0
-6.709457695484161 -0.29502230882644653 138.88999041318894 0 0 255
-6.685215473175049 -10.542704582214355 149.29124450683594 255 0 0
-6.685215481223008 -10.35858874320984 149.36935569643975 255 0 0
-6.839493322372436 -10.492997467517853 149.1740798830986 0 255 0
-6.8124881982803345 -10.60295872092247 149.4332694888115 0 0 255
-6.786224842071533 -10.077153205871582 134.99832153320312 255 0 0
-6.78622483383086 -10.26567783355713 135.06509326696397 255 0 0
-6.938813638687134 -10.033987647294998 135.12019604444504 0 255 0
-6.915517771244049 -10.128096306324005 134.85448780059815 0 0 255
-6.88723611831665 -0.8704858422279358 145.7316131591797 255 0 0
-6.887236122421526 -0.776577228307724 145.55503123998642 255 0 0
-7.038089895248413 -0.9864234805107117 145.66995598673822 0 255 0
-7.018549251556396 -0.7372955918312073 145.80244550704955 0 0 255
-6.988245487213135 -14.746548652648926 144.05467224121094 255 0 0
-6.988245489400198 -14.69651448726654 144.2483125805855 255 0 0
-7.137316691875458 -14.617455112934113 144.02131613194942 0 255 0
-7.121578800678253 -14.890879642963409 144.091965508461 0 0 255
-7.0892558097839355 -3.518214225769043 136.01715087890625 255 0 0
-7.089255802453719 -3.6859100341796873 135.90816410779954 255 0 0
-7.236495137214661 -3.591972953081131 136.13064197301864 0 255 0
-7.2246093392372135 -3.4379785358905792 135.89369379282 0 0 255
-7.190266132354736 -6.333955764770508 149.35873413085938 255 0 0
-7.190266140977821 -6.1366825819015505 149.325820723176 255 0 0
-7.335622441768646 -6.356562958657742 149.22323336601258 0 255 0
-7.327639865875244 -6.310034912824631 149.50210864543914 0 0 255
-7.291275501251221 -13.178078651428223 137.77157592773438 255 0 0
-7.291275495864649 -13.301309061050414 137.92910137176514 255 0 0
-7.434695613384247 -13.06828819513321 137.85746379494668 0 255 0
-7.430669450759888 -13.291040241718292 137.68320733308792 0 0 255
-7.392286777496338 -0.479950875043869 141.64053344726562 255 0 0
-7.392286776817039 -0.4954914316534996 141.44113813638688 255 0 0
-7.533715331554413 -0.6209374725818634 141.65152171999216 0 255 0
-7.533700931072235 -0.3389499247074127 141.62954405397176 0 0 255
-7.493296146392822 -12.287374496459961 147.28253173828125 255 0 0
-7.4932961527811885 -12.141225719451905 147.41906207799911 255 0 0
-7.632675445079803 -12.189458805322648 147.17771797180177 0 255 0
-7.636730492115021 -12.382522016763687 147.38438230752945 0 0 255
-7.594306468963623 -7.463041305541992 135.32684326171875 255 0 0
-7.594306460221761 -7.663031792640686 135.32489215284585 255 0 0
-7.731576192378998 -7.464460299815983 135.4722908973694 0 255 0
-7.739761018753052 -7.4617021709680555 135.18958007097245 0 0 255
-7.695316791534424 -3.0159718990325928 147.215087890625 255 0 0
-7.695316798038011 -2.8671871781349183 147.08143495321275 255 0 0
-7.830413794517517 -3.1145240664482117 147.10537794828414 0 255 0
-7.8427915334701535 -2.9256913483142855 147.31558973789214 0 0 255
-7.796326160430908 -14.141486167907715 141.54470825195312 255 0 0
-7.7963261595816835 -14.160914167761803 141.74376239776612 255 0 0
-7.929184222221375 -13.992698228359222 141.5592301905155 0 255 0
-7.945821106433868 -14.273715913295746 141.53180242180824 0 0 255
-7.897336483001709 -2.311293363571167 138.2691650390625 255 0 0
-7.897336477750503 -2.4314269423484802 138.10926530361175 255 0 0
-8.027885925769805 -2.4324295282363892 138.36017532348632 0 255 0
-8.0488516330719 -2.206919264793396 138.1907481789589 0 0 255
-7.99834680557251 -8.707731246948242 148.48922729492188 255 0 0
-7.998346814165883 -8.511137783527374 148.52598336935043 255 0 0
-8.126514256000519 -8.679514467716217 148.33830705881118 0 255 0
-8.151882159709931 -8.731285916268826 148.61521171331407 0 0 255
-8.099355697631836 -10.851648330688477 136.85400390625 255 0 0
-8.099355690210068 -11.021438586711884 136.95969812870027 255 0 0
-8.225063562393188 -10.769441717863083 136.98606299161912 0 255 0
-8.254911255836486 -10.918081313371658 136.74728405475616 0 0 255
-8.200366973876953 -1.5987125635147095 143.84666442871094 255 0 0
-8.200366976228743 -1.5449098646640778 143.65403714179993 255 0 0
-8.323533046245576 -1.750479507446289 143.80427442491055 0 255 0
-8.357942724227906 -1.4800868272781371 143.87979776859282 0 0 255
-8.301376342773438 -12.905355453491211 144.91551208496094 255 0 0
-8.301376346726935 -12.814909970760345 145.09389262199403 255 0 0
-8.421913206577301 -12.763011395931244 144.8433384180069 0 255 0
-8.46097229719162 -13.012862610816956 144.97002215385436 0 0 255
-8.402387619018555 -5.455371379852295 136.67669677734375 255 0 0
-8.402387610836394 -5.642557394504547 136.60625960826874 255 0 0
-8.520201945304871 -5.51229031085968 136.82795820236205 0 255 0
-8.564003777503967 -5.41387884914875 136.56643080711365 0 0 255
-8.503396987915039 -5.388155937194824 147.52577209472656 255 0 0
-8.503396996028084 -5.202551138401032 147.45126799345016 255 0 0
-8.618388903141021 -5.449113845825195 147.37391362190246 0 255 0
-8.667033350467682 -5.345319095253944 147.63248735666275 0 0 255
-8.604408264160156 -12.581511497497559 139.7657470703125 255 0 0
-8.604408260377706 -12.668043863773345 139.94605833292007 255 0 0
-8.716470324993134 -12.43216277360916 139.83742034435272 0 255 0
-8.77006483078003 -12.682541751861573 139.71726209819317 0 0 255
-8.70541763305664 -2.313371419906616 140.60948181152344 255 0 0
-8.705417630521717 -2.371363717317581 140.41807414293288 255 0 0
-8.814433681964875 -2.473844516277313 140.65810161828995 0 255 0
-8.873094403743744 -2.2090388774871825 140.57787135243416 0 0 255
-8.806427001953125 -10.228090286254883 146.74276733398438 255 0 0
-8.806427009473918 -10.056034576892852 146.8447322010994 255 0 0
-8.912270951271058 -10.141574651002884 146.5967806816101 0 255 0
-8.97612396478653 -10.28205211162567 146.83382261395454 0 0 255
-8.907438278198242 -8.581900596618652 137.17237854003906 255 0 0
-8.907438269641965 -8.77764539718628 137.21341475844383 255 0 0
-9.00997222661972 -8.546667483448982 137.34044226408005 0 255 0
-9.079155457019805 -8.602938631176949 137.0720260977745 0 0 255
-9.008447647094727 -3.505618095397949 145.078369140625 255 0 0
-9.008447652192197 -3.3890015363693236 144.91588659286498 255 0 0
-9.107519978284836 -3.6467645525932313 144.97706587314605 0 255 0
-9.182185018062592 -3.425130474567413 145.13613651394843 0 0 255
-9.109457015991211 -12.26831340789795 142.757080078125 255 0 0
-9.109457017030056 -12.244547398388386 142.95566300153732 255 0 0
-9.204899543523789 -12.093801140785217 142.73619479686022 0 255 0
-9.285214591026307 -12.363079690933228 142.76842151731253 0 0 255
-9.210468292236328 -4.543606758117676 138.7159423828125 255 0 0
-9.210468285606835 -4.6952718734741214 138.58556718826293 255 0 0
-9.302092856168747 -4.6594958186149595 138.85075582265853 0 255 0
-9.388246071338653 -4.483878910541534 138.64646112918854 0 0 255
-9.311477661132812 -7.3917388916015625 146.56752014160156 255 0 0
-9.311477669870733 -7.191838574409485 146.5612063832581 255 0 0
-9.399071526527404 -7.397414900362492 146.38781176805497 0 255 0
-9.491275644302368 -7.388973666913808 146.65507034659385 0 0 255
-9.41248893737793 -10.439648628234863 139.20851135253906 255 0 0
-9.412488931121281 -10.582784044742585 139.34819761514663 255 0 0
-9.495808511972427 -10.312661123275756 139.33863445520402 0 255 0
-9.594307112693787 -10.49784163236618 139.1488814473152 0 0 255
-9.513498306274414 -3.5980658531188965 142.4102783203125 255 0 0
-9.513498306763418 -3.5868787385523317 142.21059144735335 255 0 0
-9.592260295152665 -3.781616413593292 142.39999521523714 0 255 0
-9.6973366856575 -3.5194271743297576 142.41468391753733 0 0 255
-9.614507675170898 -10.388710021972656 144.5286407470703 255 0 0
-9.614507680706406 -10.262072360515594 144.68344030380248 255 0 0
-9.68837639093399 -10.244855892658233 144.41095726490022 0 255 0
-9.800366258621215 -10.44588424563408 144.5754135489464 0 0 255
-9.715518951416016 -7.039707183837891 138.79684448242188 255 0 0
-9.715518942763596 -7.237651455402374 138.7682426571846 255 0 0
-9.78408686518669 -7.066575568914414 138.98279213905334 0 255 0
-9.903397750854491 -7.029901354759931 138.7289813518524 0 0 255
-9.8165283203125 -5.763101577758789 144.78306579589844 255 0 0
-9.816528327537041 -5.597823345661164 144.6704465031624 255 0 0
-9.879284769296646 -5.870033025741577 144.6261349439621 0 255 0
-10.006427311897278 -5.727763649821282 144.8349271774292 0 0 255
-9.917539596557617 -10.269049644470215 141.54566955566406 255 0 0
-9.917539594555732 -10.314847445487976 141.74035536050798 255 0 0
-9.973815923929214 -10.082229924201965 141.5896169424057 0 255 0
-10.109458792209626 -10.32383065223694 141.53278289735317 0 0 255
-10.018548965454102 -5.398494720458984 140.99607849121094 255 0 0
-10.018548961181812 -5.496233314275742 140.82158732414246 255 0 0
-10.067411133646965 -5.567698276042938 141.09085530638694 0 255 0
-10.212488353252411 -5.355864641070366 140.97219989001752 0 0 255
-10.119558334350586 -8.156396865844727 144.08926391601562 255 0 0
-10.119558342652972 -7.966460394859314 144.1519068479538 255 0 0
-10.159556326270103 -8.095019447803498 143.90316455364228 0 255 0
-10.315517926216126 -8.168924830853939 144.1272493004799 0 0 255
-10.220569610595703 -8.112049102783203 140.89724731445312 255 0 0
-10.220569602624147 -8.29441704750061 140.97935658693314 255 0 0
-10.248924496769906 -8.030769217014313 141.0777731537819 0 255 0
-10.418549406528474 -8.123690105974674 140.87139220535755 0 0 255
-10.321578979492188 -7.53019905090332 142.1898956298828 255 0 0
-10.321578982452426 -7.462476706504821 142.378080868721 255 0 0
-10.33902898132801 -7.342731463909149 142.12243154644966 0 255 0
-10.520816266536713 -7.5466182172298435 142.1958044026047 0 0 255
-1.7164921760559082 -7.525243282318115 143.91200256347656 0 255 0
-1.716492167314091 -7.7252327561378475 143.91405491251498 255 0 0
-1.9164772152900695 -7.5252683903032445 143.9095567882061 0 255 0
-1.7140462720766663 -7.5272954776883125 143.71202805042267 0 0 255
-1.7390727996826172 -8.02907657623291 143.7708282470703 0 255 0
-1.7390727949949256 -8.136318457126617 143.6020112514496 255 0 0
-1.9390477299690247 -8.02640391215682 143.7691304177046 0 255 0
-1.7359064519405365 -7.860280740261078 143.66359981298447 0 0 255
-1.7285394668579102 -7.029478549957275 143.7652587890625 0 255 0
-1.728539461886281 -7.143216168880462 143.92976944446565 255 0 0
-1.9285378575325012 -7.030139514105395 143.76480182479136 0 255 0
-1.727735918574035 -7.193987882137298 143.65152208805085 0 0 255
-1.7895216941833496 -7.5192108154296875 142.24525451660156 0 255 0
-1.7895217029252564 -7.319219303131104 142.24709758441895 255 0 0
-1.98950914144516 -7.519190178133431 142.24301421251147 0 255 0
-1.791762093268335 -7.521053767763078 142.44523347616195 0 0 255
-1.7895216941833496 -7.5192108154296875 142.24525451660156 0 255 0
-1.7895217029252564 -7.319219303131104 142.24709758441895 255 0 0
-1.98950914144516 -7.519190178133431 142.24301421251147 0 255 0
-1.791762093268335 -7.521053767763078 142.44523347616195 0 0 255
-1.7836804389953613 -7.046940326690674 143.238525390625 0 255 0
-1.783680441780857 -6.983215618133545 143.4281016588211 255 0 0
-1.9836798310279846 -7.047408944461495 143.23868291019463 0 255 0
-1.7831860555335879 -7.23651602268219 143.30224990844727 0 0 255
-1.772087574005127 -7.997201442718506 143.24945068359375 0 255 0
-1.7720875773536353 -7.920596498250961 143.06470305919646 255 0 0
-1.9720871806144715 -7.996835698909126 143.24960234158206 0 255 0
-1.7716916337609292 -7.812454175949097 143.32605547904967 0 0 255
0 1
0 2
0 3
4 5
4 6
4 7
8 9
8 10
8 11
12 13
12 14
12 15
16 17
16 18
16 19
20 21
20 22
20 23
24 25
24 26
24 27
28 29
28 30
28 31
32 33
32 34
32 35
36 37
36 38
36 39
40 41
40 42
40 43
44 45
44 46
44 47
48 49
48 50
48 51
52 53
52 54
52 55
56 57
56 58
56 59
60 61
60 62
60 63
64 65
64 66
64 67
68 69
68 70
68 71
72 73
72 74
72 75
76 77
76 78
76 79
80 81
80 82
80 83
84 85
84 86
84 87
88 89
88 90
88 91
92 93
92 94
92 95
96 97
96 98
96 99
100 101
100 102
100 103
104 105
104 106
104 107
108 109
108 110
108 111
112 113
112 114
112 115
116 117
116 118
116 119
120 121
120 122
120 123
124 125
124 126
124 127
128 129
128 130
128 131
132 133
132 134
132 135
136 137
136 138
136 139
140 141
140 142
140 143
144 145
144 146
144 147
148 149
148 150
148 151
152 153
152 154
152 155
156 157
156 158
156 159
160 161
160 162
160 163
164 165
164 166
164 167
168 169
168 170
168 171
172 173
172 174
172 175
176 177
176 178
176 179
180 181
180 182
180 183
184 185
184 186
184 187
188 189
188 190
188 191
192 193
192 194
192 195
196 197
196 198
196 199
200 201
200 202
200 203
204 205
204 206
204 207
208 209
208 210
208 211
212 213
212 214
212 215
216 217
216 218
216 219
220 221
220 222
220 223
224 225
224 226
224 227
228 229
228 230
228 231
232 233
232 234
232 235
236 237
236 238
236 239
240 241
240 242
240 243
244 245
244 246
244 247
248 249
248 250
248 251
252 253
252 254
252 255
256 257
256 258
256 259
260 261
260 262
260 263
264 265
264 266
264 267
268 269
268 270
268 271
272 273
272 274
272 275
276 277
276 278
276 279
280 281
280 282
280 283
284 285
284 286
284 287
288 289
288 290
288 291
292 293
292 294
292 295
296 297
296 298
296 299
300 301
300 302
300 303
304 305
304 306
304 307
308 309
308 310
308 311
312 313
312 314
312 315
316 317
316 318
316 319
320 321
320 322
320 323
324 325
324 326
324 327
328 329
328 330
328 331
332 333
332 334
332 335
336 337
336 338
336 339
340 341
340 342
340 343
344 345
344 346
344 347
348 349
348 350
348 351
352 353
352 354
352 355
356 357
356 358
356 359
360 361
360 362
360 363
364 365
364 366
364 367
368 369
368 370
368 371
372 373
372 374
372 375
376 377
376 378
376 379
380 381
380 382
380 383
384 385
384 386
384 387
388 389
388 390
388 391
392 393
392 394
392 395
396 397
396 398
396 399
400 401
400 402
400 403
404 405
404 406
404 407
408 409
408 410
408 411
412 413
412 414
412 415
416 417
416 418
416 419
420 421
420 422
420 423
424 425
424 426
424 427
