ply
format ascii 1.0
element vertex 72
property float x
property float y
property float z
property uchar red
property uchar green
property uchar blue
element edge 54
property int vertex1
property int vertex2
end_header
-1.5028676986694336 0.8115465641021729 -0.009254380129277706 255 0 0
-1.5028676987387992 0.8131334638223052 0.19073932562023402 255 0 0
-1.7028672218322753 0.811109648225829 -0.009250913381401915 0 255 0
-1.5024307690560819 0.6115533351898194 -0.007667484134435654 0 0 255
-1.507845401763916 0.6675328016281128 0.4970148503780365 255 0 0
-1.5078453944331636 0.4998247385025024 0.6059827506542206 255 0 0
-1.7078371524810791 0.6665431825444103 0.4954917813651264 0 255 0
-1.5060290632769466 0.5585693955421448 0.32931370139122007 0 0 255
-1.5085220336914062 0.6519070267677307 -0.49736303091049194 255 0 0
-1.5085220408734386 0.8162127733230591 -0.38332960605621336 255 0 0
-1.7085206627845764 0.6514847753569484 -0.4967546400614083 0 255 0
-1.5077814692631364 0.5378743886947632 -0.33305840492248534 0 0 255
-1.5724964141845703 -0.8563410639762878 -0.007168420124799013 255 0 0
-1.5724964142396998 -0.8550798468291759 -0.20716443853452804 255 0 0
-1.7724845290184021 -0.8585217703133822 -0.007182172064494808 0 255 0
-1.5746771639212966 -0.656356930732727 -0.005907277949154377 0 0 255
-1.57586669921875 0.1428540050983429 -0.483098566532135 255 0 0
-1.575866707504891 0.33241881728172307 -0.5468573570251465 255 0 0
-1.775866651535034 0.14280730856989976 -0.4832373765879311 0 255 0
-1.5760131532908417 0.20661277770996095 -0.2935338020324707 0 0 255
-1.5566496849060059 0.1390593945980072 0.47302746772766113 255 0 0
-1.5566496767838196 -0.04675456881523132 0.3990465819835663 255 0 0
-1.7566461563110352 0.13949912134557962 0.47192300679162147 0 255 0
-1.5554609067738057 0.2130389750003815 0.28721678256988525 0 0 255
-1.5028676986694336 1.711546540260315 -0.009254380129277706 0 255 0
-1.5028676987387992 1.7131334399804472 0.19073932562023402 255 0 0
-1.7028672218322753 1.7111096243839712 -0.009250913381401915 0 255 0
-1.5024307690560819 1.5115533113479613 -0.007667484134435654 0 0 255
-1.507845401763916 1.5675327777862549 0.4970148503780365 0 255 0
-1.5078453944331636 1.3998247146606446 0.6059827506542206 255 0 0
-1.7078371524810791 1.5665431587025522 0.4954917813651264 0 255 0
-1.5060290632769466 1.4585693717002868 0.32931370139122007 0 0 255
-1.5085220336914062 1.5519070625305176 -0.49736303091049194 0 255 0
-1.5085220408734386 1.716212809085846 -0.38332960605621336 255 0 0
-1.7085206627845764 1.5514848111197352 -0.4967546400614083 0 255 0
-1.5077814692631364 1.43787442445755 -0.33305840492248534 0 0 255
-1.5724964141845703 0.05634104087948799 -0.007168420124799013 0 255 0
-1.5724964142396998 0.057602258026599885 -0.20716443853452804 255 0 0
-1.7724845290184021 0.05416033454239368 -0.007182172064494808 0 255 0
-1.5746771639212966 0.2563251741230488 -0.005907277949154377 0 0 255
-1.57586669921875 1.0428539514541626 -0.483098566532135 0 255 0
-1.575866707504891 1.2324187636375428 -0.5468573570251465 255 0 0
-1.775866651535034 1.0428072549257195 -0.4832373765879311 0 255 0
-1.5760131532908417 1.1066127240657806 -0.2935338020324707 0 0 255
-1.5566496849060059 1.0390594005584717 0.47302746772766113 0 255 0
-1.5566496767838196 0.8532454371452332 0.3990465819835663 255 0 0
-1.7566461563110352 1.039499127306044 0.47192300679162147 0 255 0
-1.5554609067738057 1.1130389809608459 0.28721678256988525 0 0 255
-1.49491291905 1.72200568478 -0.00475453292289 0 0 255
-1.4924670150552328 1.7240577263350803 0.19521998215116795 255 0 0
-1.6948906364884555 1.7203189951656666 -0.002291281768392561 0 255 0
-1.493201170892818 1.522023325048945 -0.0027233473958492484 0 0 255
-1.51749368405 1.58082565783 0.499078711449 0 0 255
-1.5143273288618133 1.4120297125592 0.606306986894236 255 0 0
-1.7174652924212899 1.5775345549576145 0.4998029263914327 0 255 0
-1.516340410352342 1.4736011387029806 0.3302546241339555 0 0 255
-1.55050857555 1.05945173053 0.46720294852 0 0 255
-1.5501126271593841 0.8747045057889821 0.3905980780784688 255 0 0
-1.7504947962776995 1.0599723365313458 0.4649137372053157 0 255 0
-1.548194543587411 1.1360558552223634 0.28246948285610646 0 0 255
-1.56794286957 0.05524611077 -0.0107882366898 0 0 255
-1.5701832688405288 0.05708919285597262 -0.21076719473172248 255 0 0
-1.7679255543899186 0.05660621017454571 -0.00853526047446158 0 255 0
-1.5665621511607144 0.2552329932849143 -0.008960549998887455 0 0 255
-1.56210154484 1.04852047718 -0.483058131052 0 0 255
-1.5616071695773348 1.23809621859234 -0.5467824895113932 255 0 0
-1.7620582724084353 1.050305125931654 -0.4793001889348633 0 255 0
-1.5579708435409232 1.1122217589315848 -0.2935189952251661 0 0 255
-1.50696032589 1.5752559464 -0.500519383135 0 0 255
-1.506156784846365 1.7397651550267725 -0.3867825175250133 255 0 0
-1.7069291187417237 1.5739602822768202 -0.49723257010346483 0 255 0
-1.503519946955121 1.4615236223602932 -0.3360410494210681 0 0 255
0 1
0 2
0 3
4 5
4 6
4 7
8 9
8 10
8 11
12 13
12 14
12 15
16 17
16 18
16 19
20 21
20 22
20 23
24 25
24 26
24 27
28 29
28 30
28 31
32 33
32 34
32 35
36 37
36 38
36 39
40 41
40 42
40 43
44 45
44 46
44 47
48 49
48 50
48 51
52 53
52 54
52 55
56 57
56 58
56 59
60 61
60 62
60 63
64 65
64 66
64 67
68 69
68 70
68 71
