ply
format ascii 1.0
element vertex 96
property float x
property float y
property float z
property uchar red
property uchar green
property uchar blue
element edge 72
property int vertex1
property int vertex2
end_header
1.70079118954 0.0159456324149 1.51095763913 255 0 0
1.7019281452765431 -0.18405107107307953 1.5111186533975351 255 0 0
1.7019185230867198 0.016113055469398372 1.7109543918251258 0 255 0
1.5007975985158686 0.014809602722492888 1.5120859058583878 0 0 255
1.5508477543 -0.493404796419 1.49574800619 255 0 0
1.3842618416952273 -0.6040657818824403 1.4939369242218838 255 0 0
1.550849743507536 -0.4966805595769075 1.6957211778200372 0 255 0
1.4401719497279164 -0.32684124796978625 1.4984775868040165 0 0 255
1.52387798135 0.494631336551 1.50932822144 255 0 0
1.688029650980311 0.38037701639863697 1.5089043298234561 255 0 0
1.5239462686843 0.4939874361807028 1.709327173260136 0 255 0
1.4096228952731815 0.33048038249092015 1.508838745450478 0 0 255
0.0283260309358 0.00345136761476 1.57910346144 255 0 0
0.028810372907863764 0.2034491809516272 1.5783034156127247 255 0 0
0.03167675263149391 0.004243189064753178 1.7790738234512473 0 255 0
0.22829737407519116 0.0029536937627508285 1.575754693940617 0 0 255
1.03569100218 0.484795032713 1.59097014818 255 0 0
1.2252430733168664 0.5485872590012981 1.5917212759367432 255 0 0
1.0339578578704138 0.4875902926801753 1.7909431031827154 0 255 0
1.0994641041786213 0.29526208468839277 1.5941721904306574 0 0 255
1.0148780988 -0.480568219723 1.56239545128 255 0 0
0.8279229909643404 -0.40955330786816163 1.560234444938861 255 0 0
1.0117029312089099 -0.4828423187895232 1.7623573146044953 0 255 0
1.0858548975790756 -0.2936144533322552 1.565648644694082 0 0 255
-1.51095763913 1.70079118954 -0.0159456324149 0 255 0
-1.5111186533975351 1.7019281452765431 0.18405107107307947 255 0 0
-1.7109543918251255 1.7019185230867198 -0.016113055469398358 0 255 0
-1.5120859058583878 1.5007975985158686 -0.014809602722492887 0 0 255
-1.49574800619 1.5508477543 0.493404796419 0 255 0
-1.4939369242218838 1.3842618416952273 0.6040657818824404 255 0 0
-1.6957211778200374 1.550849743507536 0.4966805595769075 0 255 0
-1.4984775868040165 1.4401719497279164 0.32684124796978625 0 0 255
-1.50932822144 1.52387798135 -0.494631336551 0 255 0
-1.5089043298234561 1.688029650980311 -0.38037701639863697 255 0 0
-1.709327173260136 1.5239462686843 -0.4939874361807028 0 255 0
-1.508838745450478 1.4096228952731815 -0.33048038249092015 0 0 255
-1.57910346144 0.0283260309358 -0.00345136761476 0 255 0
-1.578303415612725 0.028810372907863747 -0.20344918095162723 255 0 0
-1.7790738234512473 0.031676752631493936 -0.004243189064753157 0 255 0
-1.575754693940617 0.22829737407519116 -0.002953693762750852 0 0 255
-1.59097014818 1.03569100218 -0.484795032713 0 255 0
-1.5917212759367432 1.2252430733168664 -0.5485872590012981 255 0 0
-1.7909431031827154 1.0339578578704138 -0.4875902926801753 0 255 0
-1.5941721904306574 1.0994641041786213 -0.29526208468839277 0 0 255
-1.56239545128 1.0148780988 0.480568219723 0 255 0
-1.560234444938861 0.8279229909643403 0.40955330786816163 255 0 0
-1.7623573146044953 1.0117029312089099 0.4828423187895232 0 255 0
-1.565648644694082 1.0858548975790756 0.2936144533322552 0 0 255
-1.5028676986694336 0.8115465641021729 -0.009254380129277706 0 0 255
-1.5028676987387992 0.8131334638223052 0.19073932562023402 255 0 0
-1.7028672218322753 0.811109648225829 -0.009250913381401915 0 255 0
-1.5024307690560819 0.6115533351898194 -0.007667484134435654 0 0 255
-1.507845401763916 0.6675328016281128 0.4970148503780365 0 0 255
-1.5078453944331636 0.4998247385025024 0.6059827506542206 255 0 0
-1.7078371524810791 0.6665431825444103 0.4954917813651264 0 255 0
-1.5060290632769466 0.5585693955421448 0.32931370139122007 0 0 255
-1.5085220336914062 0.6519070267677307 -0.49736303091049194 0 0 255
-1.5085220408734386 0.8162127733230591 -0.38332960605621336 255 0 0
-1.7085206627845764 0.6514847753569484 -0.4967546400614083 0 255 0
-1.5077814692631364 0.5378743886947632 -0.33305840492248534 0 0 255
-1.5724964141845703 -0.8563410639762878 -0.007168420124799013 0 0 255
-1.5724964142396998 -0.8550798468291759 -0.20716443853452804 255 0 0
-1.7724845290184021 -0.8585217703133822 -0.007182172064494808 0 255 0
-1.5746771639212966 -0.656356930732727 -0.005907277949154377 0 0 255
-1.57586669921875 0.1428540050983429 -0.483098566532135 0 0 255
-1.575866707504891 0.33241881728172307 -0.5468573570251465 255 0 0
-1.775866651535034 0.14280730856989976 -0.4832373765879311 0 255 0
-1.5760131532908417 0.20661277770996095 -0.2935338020324707 0 0 255
-1.5566496849060059 0.1390593945980072 0.47302746772766113 0 0 255
-1.5566496767838196 -0.04675456881523132 0.3990465819835663 255 0 0
-1.7566461563110352 0.13949912134557962 0.47192300679162147 0 255 0
-1.5554609067738057 0.2130389750003815 0.28721678256988525 0 0 255
-1.5028676986694336 1.711546540260315 -0.009254380129277706 255 255 0
-1.5028676987387992 1.7131334399804472 0.19073932562023402 255 0 0
-1.7028672218322753 1.7111096243839712 -0.009250913381401915 0 255 0
-1.5024307690560819 1.5115533113479613 -0.007667484134435654 0 0 255
-1.507845401763916 1.5675327777862549 0.4970148503780365 255 255 0
-1.5078453944331636 1.3998247146606446 0.6059827506542206 255 0 0
-1.7078371524810791 1.5665431587025522 0.4954917813651264 0 255 0
-1.5060290632769466 1.4585693717002868 0.32931370139122007 0 0 255
-1.5085220336914062 1.5519070625305176 -0.49736303091049194 255 255 0
-1.5085220408734386 1.716212809085846 -0.38332960605621336 255 0 0
-1.7085206627845764 1.5514848111197352 -0.4967546400614083 0 255 0
-1.5077814692631364 1.43787442445755 -0.33305840492248534 0 0 255
-1.5724964141845703 0.05634104087948799 -0.007168420124799013 255 255 0
-1.5724964142396998 0.057602258026599885 -0.20716443853452804 255 0 0
-1.7724845290184021 0.05416033454239368 -0.007182172064494808 0 255 0
-1.5746771639212966 0.2563251741230488 -0.005907277949154377 0 0 255
-1.57586669921875 1.0428539514541626 -0.483098566532135 255 255 0
-1.575866707504891 1.2324187636375428 -0.5468573570251465 255 0 0
-1.775866651535034 1.0428072549257195 -0.4832373765879311 0 255 0
-1.5760131532908417 1.1066127240657806 -0.2935338020324707 0 0 255
-1.5566496849060059 1.0390594005584717 0.47302746772766113 255 255 0
-1.5566496767838196 0.8532454371452332 0.3990465819835663 255 0 0
-1.7566461563110352 1.039499127306044 0.47192300679162147 0 255 0
-1.5554609067738057 1.1130389809608459 0.28721678256988525 0 0 255
0 1
0 2
0 3
4 5
4 6
4 7
8 9
8 10
8 11
12 13
12 14
12 15
16 17
16 18
16 19
20 21
20 22
20 23
24 25
24 26
24 27
28 29
28 30
28 31
32 33
32 34
32 35
36 37
36 38
36 39
40 41
40 42
40 43
44 45
44 46
44 47
48 49
48 50
48 51
52 53
52 54
52 55
56 57
56 58
56 59
60 61
60 62
60 63
64 65
64 66
64 67
68 69
68 70
68 71
72 73
72 74
72 75
76 77
76 78
76 79
80 81
80 82
80 83
84 85
84 86
84 87
88 89
88 90
88 91
92 93
92 94
92 95
