ply
format ascii 1.0
element vertex 120
property float x
property float y
property float z
property uchar red
property uchar green
property uchar blue
element edge 90
property int vertex1
property int vertex2
end_header
-1.5028676986694336 0.8115465641021729 -0.009254380129277706 255 0 0
-1.5028676987387992 0.8131334638223052 0.19073932562023402 255 0 0
-1.7028672218322753 0.811109648225829 -0.009250913381401915 0 255 0
-1.5024307690560819 0.6115533351898194 -0.007667484134435654 0 0 255
-1.507845401763916 0.6675328016281128 0.4970148503780365 255 0 0
-1.5078453944331636 0.4998247385025024 0.6059827506542206 255 0 0
-1.7078371524810791 0.6665431825444103 0.4954917813651264 0 255 0
-1.5060290632769466 0.5585693955421448 0.32931370139122007 0 0 255
-1.5085220336914062 0.6519070267677307 -0.49736303091049194 255 0 0
-1.5085220408734386 0.8162127733230591 -0.38332960605621336 255 0 0
-1.7085206627845764 0.6514847753569484 -0.4967546400614083 0 255 0
-1.5077814692631364 0.5378743886947632 -0.33305840492248534 0 0 255
-1.5724964141845703 -0.8563410639762878 -0.007168420124799013 255 0 0
-1.5724964142396998 -0.8550798468291759 -0.20716443853452804 255 0 0
-1.7724845290184021 -0.8585217703133822 -0.007182172064494808 0 255 0
-1.5746771639212966 -0.656356930732727 -0.005907277949154377 0 0 255
-1.57586669921875 0.1428540050983429 -0.483098566532135 255 0 0
-1.575866707504891 0.33241881728172307 -0.5468573570251465 255 0 0
-1.775866651535034 0.14280730856989976 -0.4832373765879311 0 255 0
-1.5760131532908417 0.20661277770996095 -0.2935338020324707 0 0 255
-1.5566496849060059 0.1390593945980072 0.47302746772766113 255 0 0
-1.5566496767838196 -0.04675456881523132 0.3990465819835663 255 0 0
-1.7566461563110352 0.13949912134557962 0.47192300679162147 0 255 0
-1.5554609067738057 0.2130389750003815 0.28721678256988525 0 0 255
-1.5109577178955078 1.7007912397384644 0.01594563201069832 0 255 0
-1.5109577241034458 1.8428122997283936 -0.12487346455454826 255 0 0
-1.5125588096678257 1.5599766612052917 -0.12607087418437005 0 255 0
-1.71095130443573 1.7019185568206012 0.0170825800858438 0 0 255
-1.4957480430603027 1.5508477687835693 -0.4934048056602478 0 255 0
-1.4957480343180252 1.3508477687835694 -0.49340717236154885 255 0 0
-1.6623339533805848 1.5508464518190521 -0.38272900581359864 0 255 0
-1.606423842906952 1.5508497352411723 -0.6599907159805298 0 0 255
-1.5093283653259277 1.5238779783248901 0.4946313500404358 0 255 0
-1.5093283740682046 1.7238779664039612 0.4945481528877281 255 0 0
-1.6734800457954406 1.5238304426631657 0.38037627935409546 0 255 0
-1.623583447933197 1.523946258093929 0.6587830185890198 0 0 255
-1.5791034698486328 0.02832603082060814 0.0034513676073402166 0 255 0
-1.5791034710993184 0.05693837925791741 -0.19449138999916615 255 0 0
-1.5824890185147524 0.22624042853713036 0.032059615245088935 0 255 0
-1.379132127761841 0.03167675510048866 0.003935708850622177 0 0 255
-1.5909700393676758 1.0356910228729248 0.4847950339317322 0 255 0
-1.5909700481095883 1.2356826663017273 0.4866236412897706 255 0 0
-1.780530035495758 1.035107934754342 0.5485654711723328 0 255 0
-1.5271969377994536 1.033957871608436 0.6743471145629882 0 0 255
-1.5623955726623535 1.0148781538009644 -0.4805682301521301 0 255 0
-1.5623955639213363 0.8149069905281067 -0.47717199511826036 255 0 0
-1.7493776440620423 1.0136728761717677 -0.5515347957611084 0 255 0
-1.4914187729358672 1.0117029815912246 -0.6675233364105224 0 0 255
-1.494913101196289 1.7220057249069214 -0.0047545298002660275 0 0 255
-1.4949131012859926 1.7240579029545189 0.19523494401946664 255 0 0
-1.6948981404304504 1.7195599408820272 -0.004729432647582144 0 255 0
-1.492467188462615 1.5220312118530273 -0.0027025052346289157 0 0 255
-1.517493724822998 1.580825686454773 0.4990787208080292 0 0 255
-1.5174937174437673 1.412008571624756 0.6063204109668732 255 0 0
-1.7174686551094056 1.5791278513148428 0.49640604611486194 0 255 0
-1.5143273647874593 1.4735974431037904 0.33028276562690734 0 0 255
-1.506960391998291 1.5752559900283813 -0.5005193948745728 0 0 255
-1.5069603991892742 1.7397665143013001 -0.3867815971374512 255 0 0
-1.706958782672882 1.5747990163043142 -0.4998584400396794 0 255 0
-1.5061568459495902 1.4615191102027894 -0.33601019382476804 0 0 255
-1.5679426193237305 0.05524611100554466 -0.010788239538669586 0 0 255
-1.5679426194042994 0.057089314050972464 -0.21077973991632462 255 0 0
-1.7679300665855409 0.05300579834729433 -0.010808887091116048 0 255 0
-1.5701830271631478 0.25522505864501 -0.008945152163505554 0 0 255
-1.5621013641357422 1.0485204458236694 -0.4830581247806549 0 0 255
-1.5621013724223864 1.2380967617034913 -0.5467826843261718 255 0 0
-1.7621007561683655 1.0486779563012534 -0.48258951562456787 0 255 0
-1.5616069917101414 1.1122448146343231 -0.29348238110542296 0 0 255
-1.5505084991455078 1.059451699256897 0.46720296144485474 0 0 255
-1.5505084910699345 0.874704110622406 0.390597939491272 255 0 0
-1.7505081057548524 1.0596033486770466 0.46683720892760905 0 255 0
-1.5501125541515648 1.1360565721988678 0.2824557304382324 0 0 255
-1.5028676986694336 1.711546540260315 -0.009254380129277706 255 255 0
-1.5028676987387992 1.7131334399804472 0.19073932562023402 255 0 0
-1.7028672218322753 1.7111096243839712 -0.009250913381401915 0 255 0
-1.5024307690560819 1.5115533113479613 -0.007667484134435654 0 0 255
-1.507845401763916 1.5675327777862549 0.4970148503780365 255 255 0
-1.5078453944331636 1.3998247146606446 0.6059827506542206 255 0 0
-1.7078371524810791 1.5665431587025522 0.4954917813651264 0 255 0
-1.5060290632769466 1.4585693717002868 0.32931370139122007 0 0 255
-1.5085220336914062 1.5519070625305176 -0.49736303091049194 255 255 0
-1.5085220408734386 1.716212809085846 -0.38332960605621336 255 0 0
-1.7085206627845764 1.5514848111197352 -0.4967546400614083 0 255 0
-1.5077814692631364 1.43787442445755 -0.33305840492248534 0 0 255
-1.5724964141845703 0.05634104087948799 -0.007168420124799013 255 255 0
-1.5724964142396998 0.057602258026599885 -0.20716443853452804 255 0 0
-1.7724845290184021 0.05416033454239368 -0.007182172064494808 0 255 0
-1.5746771639212966 0.2563251741230488 -0.005907277949154377 0 0 255
-1.57586669921875 1.0428539514541626 -0.483098566532135 255 255 0
-1.575866707504891 1.2324187636375428 -0.5468573570251465 255 0 0
-1.775866651535034 1.0428072549257195 -0.4832373765879311 0 255 0
-1.5760131532908417 1.1066127240657806 -0.2935338020324707 0 0 255
-1.5566496849060059 1.0390594005584717 0.47302746772766113 255 255 0
-1.5566496767838196 0.8532454371452332 0.3990465819835663 255 0 0
-1.7566461563110352 1.039499127306044 0.47192300679162147 0 255 0
-1.5554609067738057 1.1130389809608459 0.28721678256988525 0 0 255
-1.5109577178955078 1.7007912397384644 0.01594563201069832 255 0 255
-1.5109577241034458 1.8428122997283936 -0.12487346455454826 255 0 0
-1.5125588096678257 1.5599766612052917 -0.12607087418437005 0 255 0
-1.71095130443573 1.7019185568206012 0.0170825800858438 0 0 255
-1.5093283653259277 1.5238779783248901 0.4946313500404358 255 0 255
-1.5093283565836502 1.3238779783248902 0.49462898333913474 255 0 0
-1.6759142756462098 1.523876661360373 0.605307149887085 0 255 0
-1.620004165172577 1.5238799447824931 0.32804543972015376 0 0 255
-1.4957480430603027 1.5508477687835693 -0.4934048056602478 255 0 255
-1.4957480518025796 1.7508477568626404 -0.4934880028129555 255 0 0
-1.6598997235298156 1.550800233121845 -0.6076598763465881 0 255 0
-1.610003125667572 1.5509160485526081 -0.3292531371116638 0 0 255
-1.5791034698486328 0.02832603082060814 0.0034513676073402166 255 0 255
-1.5791034710993184 0.05693837925791741 -0.19449138999916615 255 0 0
-1.5824890185147524 0.22624042853713036 0.032059615245088935 0 255 0
-1.379132127761841 0.03167675510048866 0.003935708850622177 0 0 255
-1.5623955726623535 1.0148781538009644 -0.4805682301521301 255 0 255
-1.562395581404266 1.2148697972297668 -0.4787396227940917 255 0 0
-1.7519555687904358 1.0142950656823815 -0.4167977929115295 0 255 0
-1.4986224710941314 1.0131450025364757 -0.291016149520874 0 0 255
-1.5909700393676758 1.0356910228729248 0.4847950339317322 255 0 255
-1.5909700306266585 0.8357198596000671 0.48819126896560194 255 0 0
-1.7779521107673646 1.0344857452437282 0.4138284683227539 0 255 0
-1.5199932396411895 1.032515850663185 0.29783992767333983 0 0 255
0 1
0 2
0 3
4 5
4 6
4 7
8 9
8 10
8 11
12 13
12 14
12 15
16 17
16 18
16 19
20 21
20 22
20 23
24 25
24 26
24 27
28 29
28 30
28 31
32 33
32 34
32 35
36 37
36 38
36 39
40 41
40 42
40 43
44 45
44 46
44 47
48 49
48 50
48 51
52 53
52 54
52 55
56 57
56 58
56 59
60 61
60 62
60 63
64 65
64 66
64 67
68 69
68 70
68 71
72 73
72 74
72 75
76 77
76 78
76 79
80 81
80 82
80 83
84 85
84 86
84 87
88 89
88 90
88 91
92 93
92 94
92 95
96 97
96 98
96 99
100 101
100 102
100 103
104 105
104 106
104 107
108 109
108 110
108 111
112 113
112 114
112 115
116 117
116 118
116 119
