ply
format ascii 1.0
element vertex 256
property float x
property float y
property float z
property uchar red
property uchar green
property uchar blue
element edge 192
property int vertex1
property int vertex2
end_header
-1.5029 0.81155 -0.0092544 0 255 0
-1.502900000069366 0.8131368999999999 0.1907396 255 0 0
-1.3029 0.81198692 -0.0092578668 0 255 0
-1.50333692 1.011544 -0.0108413 0 0 255
-1.5078 0.66753 0.49701 0 255 0
-1.5077999926692 0.499822 0.605978 255 0 0
-1.307808 0.66851962 0.49853306000000003 0 255 0
-1.50961634 0.776494 0.664712 0 0 255
-1.5085 0.65191 -0.49736 0 255 0
-1.508500007182 0.816216 -0.38332600000000006 255 0 0
-1.3085019999999998 0.65233226 -0.49796840000000003 0 255 0
-1.5092405599999998 0.765942 -0.661664 0 0 255
-1.5725 -0.85634 -0.0071684 0 255 0
-1.57250000005513 -0.85507878 -0.2071644 255 0 0
-1.372512 -0.8541592 -0.007154648 0 255 0
-1.5703192 -1.056324 -0.00842954 0 0 255
-1.5759 0.14285 -0.4831 0 255 0
-1.5759000082862 0.332414 -0.546858 255 0 0
-1.3759000000000001 0.14289669600000002 -0.48296119 0 255 0
-1.575753546 0.079092 -0.6726639999999999 0 0 255
-1.5566 0.13906 0.47303 0 255 0
-1.5565999918778 -0.04675400000000002 0.39905 255 0 0
-1.356604 0.13862027999999998 0.47413446 0 255 0
-1.5577887799999999 0.06507999999999999 0.6588400000000001 0 0 255
-9.898 1.8993 0.6264 255 0 0
-9.8980000027382 1.961944 0.43646399999999996 255 0 0
-9.858001999999999 2.0854 0.687778 0 255 0
-9.70204 1.861314 0.613872 0 0 255
-0.70606 -2.5913 9.6394 255 0 0
-0.7060600084426 -2.3981559999999997 9.691320000000001 255 0 0
-0.506428 -2.5944468 9.651105600000001 0 255 0
-0.6939388 -2.539474 9.446612 0 0 255
-4.1404 -1.6372 8.9997 255 0 0
-4.140400008601199 -1.44043 9.035496 255 0 0
-3.9574519999999995 -1.6516634 9.079204 0 255 0
-4.059591999999999 -1.6044559999999999 8.819706 0 0 255
-4.8475 8.4106 -2.5931 255 0 0
-4.8474999974244 8.351674000000001 -2.784222 255 0 0
-4.671476 8.501334 -2.621074 0 255 0
-4.75255 8.242388 -2.5412380000000003 0 0 255
-9.797 -1.1939 -2.1315 255 0 0
-9.7969999923728 -1.368392 -2.033762 255 0 0
-9.748138 -1.288676 -2.300704 0 255 0
-9.603060000000001 -1.170022 -2.08887 0 0 255
-0.50404 -9.8391 -1.7404 255 0 0
-0.50403999847726 -9.873936 -1.543458 255 0 0
-0.30420400000000003 -9.8470572 -1.74180754 0 255 0
-0.49595920000000004 -9.642318 -1.705592 0 0 255
-3.7364 0.045443 -9.3153 255 0 0
-3.7363999912578003 -0.154555 -9.316275880000001 255 0 0
-3.5500920000000002 0.04579788 -9.388026 0 255 0
-3.663672 0.044533939999999994 -9.128994 0 0 255
-3.4333 -7.4541 -5.7728 255 0 0
-3.433299994647 -7.576560000000001 -5.614676 255 0 0
-3.244738 -7.506808 -5.81362 0 255 0
-3.366634 -7.3050180000000005 -5.657344 0 0 255
-6.2616 -2.4304 7.4918 255 0 0
-6.261600008315599 -2.24016 7.553515999999999 255 0 0
-6.104075999999999 -2.468426 7.609018 0 255 0
-6.138368 -2.381792 7.341964 0 0 255
-3.3323 1.6028 9.3265 255 0 0
-3.332300008616 1.7999100000000001 9.292624 255 0 0
-3.143036 1.6137496 9.390212 0 255 0
-3.267654 1.570744 9.13997 0 0 255
-7.3727 -6.8632 -0.066963 255 0 0
-7.372699999914706 -6.8651513 0.133027 255 0 0
-7.23543 -7.008648 -0.06838211999999999 0 255 0
-7.227246 -6.725936 -0.06562374 0 0 255
-2.8273 -3.7143 8.875 255 0 0
-2.8273000080646002 -3.529806 8.952212 255 0 0
-2.634882 -3.735358 8.925316 0 255 0
-2.772754 -3.6400140000000003 8.6975 0 0 255
-1.2111 2.9743 9.4826 255 0 0
-1.2111000083416001 3.165132 9.422744 255 0 0
-1.0123380000000002 2.9809508 9.503803999999999 0 255 0
-1.188878 2.914814 9.292947999999999 0 0 255
-7.2717 5.0925 4.7574 255 0 0
-7.271700005968 5.22903 4.6112519999999995 255 0 0
-7.13232 5.197314 4.855315999999999 0 255 0
-7.128266 4.9906500000000005 4.662252 0 0 255
-3.5343 9.3597 -0.77543 255 0 0
-3.5342999992782 9.343187 -0.974748 255 0 0
-3.346464 9.428152 -0.7811011999999999 0 255 0
-3.465614 9.172506 -0.7599214 0 0 255
-9.696 -0.64433 2.739 255 0 0
-9.69600000851 -0.44964399999999993 2.784798 255 0 0
-9.639724 -0.688278 2.92582 0 255 0
-9.50408 -0.6314432 2.68422 0 0 255
-4.4434 -8.0138 4.1126 255 0 0
-4.4434000039914 -7.922486 4.290538 255 0 0
-4.263249999999999 -8.091086 4.1522619999999995 0 255 0
-4.356532 -7.853524 4.030347999999999 0 0 255
-8.1808 -5.5133 -2.0746 255 0 0
-8.180799996921 -5.583738 -1.8874140000000001 255 0 0
-8.062986 -5.664562 -2.13152 0 255 0
-8.019184 -5.403034 -2.0331080000000004 0 0 255
-0.80707 -4.5975 -8.8523 255 0 0
-0.8070699922415999 -4.77499 -8.760118 255 0 0
-0.6075699999999999 -4.6040178 -8.8648498 0 255 0
-0.7929286 -4.50555 -8.675253999999999 0 0 255
-2.3222 -8.0033 5.5685 255 0 0
-2.322200004993 -7.889073999999999 5.732672 255 0 0
-2.1272 -8.039781999999999 5.593884 0 255 0
-2.277756 -7.843234 5.45713 0 0 255
-1.4949 1.722 -0.0048 0 255 0
-1.49246 1.72406 0.19518000000000002 255 0 0
-1.2949199999999998 1.7236799999999999 -0.00726 0 255 0
-1.4966199999999998 1.92198 -0.00684 0 0 255
-1.5175 1.5808 0.4991 0 255 0
-1.51434 1.412 0.60632 255 0 0
-1.31752 1.5841 0.49838 0 255 0
-1.5186600000000001 1.68802 0.66792 0 0 255
-1.5505 1.0595 0.4672 0 255 0
-1.5501 0.8747600000000001 0.3906 255 0 0
-1.35052 1.05898 0.46948 0 255 0
-1.55282 0.9829000000000001 0.65194 0 0 255
-1.5679 0.0552 -0.0108 0 255 0
-1.57014 0.05704 -0.21078000000000002 255 0 0
-1.36792 0.05384 -0.01306 0 255 0
-1.56928 -0.14478000000000002 -0.012620000000000001 0 0 255
-1.5621 1.0485 -0.4831 0 255 0
-1.5616 1.23808 -0.54682 255 0 0
-1.3621400000000001 1.04672 -0.48685999999999996 0 255 0
-1.56624 0.9848 -0.67264 0 0 255
-1.507 1.5753 -0.5005 0 255 0
-1.5062 1.7398 -0.38675999999999994 255 0 0
-1.3070399999999998 1.5766 -0.5037799999999999 0 255 0
-1.51044 1.6890399999999999 -0.6649799999999999 0 0 255
-8.6859 -5.0176 1.0519 255 0 0
-8.68590000179374 -4.976564 1.2476440000000002 255 0 0
-8.583366 -5.185664 1.087132 0 255 0
-8.514182 -4.917248 1.030862 0 0 255
-9.0899 4.3775 -0.13826 255 0 0
-9.08989999972402 4.3711864 -0.33816 255 0 0
-9.002306 4.557208 -0.1439358 0 255 0
-8.910102 4.28995 -0.1354948 0 0 255
-1.7162 7.546 6.3597 255 0 0
-1.7162000056339999 7.67489 6.206770000000001 255 0 0
-1.51883 7.570716 6.38053 0 255 0
-1.683876 7.39508 6.232506 0 0 255
-3.0293 8.4636 4.4482 255 0 0
-3.0293000040672 8.556645999999999 4.271162 255 0 0
-2.838074 8.51546 4.475456 0 255 0
-2.970714 8.294328 4.359236 0 0 255
-9.1909 -2.9815 2.9096 255 0 0
-9.1909000061058 -2.841814 3.0527360000000003 255 0 0
-9.107579999999999 -3.111624 3.036588 0 255 0
-9.009082 -2.92187 2.851408 0 0 255
-1.3121 -8.5883 -4.9771 255 0 0
-1.3120999956166 -8.688582 -4.804058 255 0 0
-1.113574 -8.609274000000001 -4.9892554 0 255 0
-1.287858 -8.416534 -4.8775580000000005 0 0 255
-1.4949 1.722 -0.0048 0 255 0
-1.49246 1.72406 0.19518000000000002 255 0 0
-1.2949199999999998 1.7236799999999999 -0.00726 0 255 0
-1.4966199999999998 1.92198 -0.00684 0 0 255
-1.5175 1.5808 0.4991 0 255 0
-1.51434 1.412 0.60632 255 0 0
-1.31752 1.5841 0.49838 0 255 0
-1.5186600000000001 1.68802 0.66792 0 0 255
-1.507 1.5753 -0.5005 0 255 0
-1.5062 1.7398 -0.38675999999999994 255 0 0
-1.3070399999999998 1.5766 -0.5037799999999999 0 255 0
-1.51044 1.6890399999999999 -0.6649799999999999 0 0 255
-1.5679 0.0552 -0.0108 0 255 0
-1.57014 0.05704 -0.21078000000000002 255 0 0
-1.36792 0.05384 -0.01306 0 255 0
-1.56928 -0.14478000000000002 -0.012620000000000001 0 0 255
-1.5621 1.0485 -0.4831 0 255 0
-1.5616 1.23808 -0.54682 255 0 0
-1.3621400000000001 1.04672 -0.48685999999999996 0 255 0
-1.56624 0.9848 -0.67264 0 0 255
-1.5505 1.0595 0.4672 0 255 0
-1.5501 0.8747600000000001 0.3906 255 0 0
-1.35052 1.05898 0.46948 0 255 0
-1.55282 0.9829000000000001 0.65194 0 0 255
-3.3323 1.6028 9.3265 255 0 0
-3.332300008616 1.7999100000000001 9.292624 255 0 0
-3.143036 1.6137496 9.390212 0 255 0
-3.267654 1.570744 9.13997 0 0 255
-9.999 -1.2928 0.58205 255 0 0
-9.9990000035892 -1.21069 0.7644179999999999 255 0 0
-9.970646 -1.473326 0.66333 0 255 0
-9.801020000000001 -1.2669439999999998 0.5704089999999999 0 0 255
-6.0596 -7.8257 -1.8007 255 0 0
-6.05959999803964 -7.870548 -1.605794 255 0 0
-5.898998 -7.9418560000000005 -1.827428 0 255 0
-5.940408 -7.669186000000001 -1.764686 0 0 255
-6.4636 7.1012 3.0127 255 0 0
-6.4636000034144 7.179312 2.828584 255 0 0
-6.309322 7.218364 3.062408 0 255 0
-6.336328 6.959176 2.952446 0 0 255
-8.9889 -3.4741 -2.9864 255 0 0
-8.9888999943012 -3.604476 -2.834734 255 0 0
-8.897276 -3.608914 -3.10229 0 255 0
-8.811122 -3.404618 -2.926672 0 0 255
-3.8374 6.232 6.8698 255 0 0
-3.8374000064750002 6.380132000000001 6.735422 255 0 0
-3.651894 6.282222 6.925161999999999 0 255 0
-3.762652 6.10736 6.732404 0 0 255
-3.0293 8.4636 4.4482 255 0 0
-3.0293000040672 8.556645999999999 4.271162 255 0 0
-2.838074 8.51546 4.475456 0 255 0
-2.970714 8.294328 4.359236 0 0 255
-9.4939 -3.3932 -0.49029 255 0 0
-9.49389999874976 -3.421802 -0.292346 255 0 0
-9.425332 -3.579148 -0.517158 0 255 0
-9.306022 -3.325336 -0.48048420000000003 0 0 255
-0.20101 -7.3733 6.7546 255 0 0
-0.2010100059054 -7.238202 6.902074 255 0 0
-0.0010199999999999931 -7.3747896200000005 6.75596462 0 255 0
-0.1989898 -7.225834000000001 6.619508 0 0 255
-5.3525 5.5156 -6.4799 255 0 0
-5.3524999933428 5.3633 -6.609534 255 0 0
-5.18231 5.58369 -6.559896 0 255 0
-5.24745 5.405288 -6.350302 0 0 255
-2.2212 9.6852 1.3031 255 0 0
-2.22120000116576 9.71187 1.104886 255 0 0
-2.025752 9.727246 1.3087571999999998 0 255 0
-2.178776 9.491496 1.277038 0 0 255
-0.30202 0.87408 -9.9597 255 0 0
-0.3020199912912 0.674846 -9.9771852 255 0 0
-0.10205999999999998 0.87443324 -9.963725 0 255 0
-0.2979796 0.8565984 -9.760506 0 0 255
-2.4232 2.1348 -9.4892 255 0 0
-2.4231999914708 1.9396759999999997 -9.533096 255 0 0
-2.228672 2.1449982 -9.534532 0 255 0
-2.376736 2.092104 -9.299416 0 0 255
-8.8879 0.56707 4.7383 255 0 0
-8.8879000086804 0.765652 4.714534 255 0 0
-8.792458 0.5879559999999999 4.912812 0 255 0
-8.712142 0.5557285999999999 4.643534 0 0 255
-9.696 -0.64433 2.739 255 0 0
-9.69600000851 -0.44964399999999993 2.784798 255 0 0
-9.639724 -0.688278 2.92582 0 255 0
-9.50408 -0.6314432 2.68422 0 0 255
-7.5747 -0.6453 6.6115 255 0 0
-7.574700008701 -0.446246 6.6309282000000005 255 0 0
-7.441842 -0.659822 6.760288 0 255 0
-7.425206 -0.632394 6.4792700000000005 0 0 255
-8.7869 2.8884 -4.0244 255 0 0
-8.786899992897599 2.725918 -4.141016 255 0 0
-8.687828 2.9897039999999997 -4.165546 0 255 0
-8.613161999999999 2.830632 -3.943912 0 0 255
-8.3828 -2.4243 5.0515 255 0 0
-8.382800007881599 -2.243988 5.138032 255 0 0
-8.270738 -2.495974 5.200848 0 255 0
-8.217144 -2.375814 4.95047 0 0 255
-2.1202 -6.275 -7.5195 255 0 0
-2.1201999932878 -6.428556 -7.391357999999999 255 0 0
-1.9243240000000001 -6.3008880000000005 -7.550522 0 255 0
-2.079796 -6.149500000000001 -7.36911 0 0 255
-6.1606 6.9206 -3.921 255 0 0
-6.1605999956906 6.822012 -4.095012 255 0 0
-6.001516 7.0260620000000005 -3.98075 0 255 0
-6.039388 6.7821880000000005 -3.84258 0 0 255
0 1
0 2
0 3
4 5
4 6
4 7
8 9
8 10
8 11
12 13
12 14
12 15
16 17
16 18
16 19
20 21
20 22
20 23
24 25
24 26
24 27
28 29
28 30
28 31
32 33
32 34
32 35
36 37
36 38
36 39
40 41
40 42
40 43
44 45
44 46
44 47
48 49
48 50
48 51
52 53
52 54
52 55
56 57
56 58
56 59
60 61
60 62
60 63
64 65
64 66
64 67
68 69
68 70
68 71
72 73
72 74
72 75
76 77
76 78
76 79
80 81
80 82
80 83
84 85
84 86
84 87
88 89
88 90
88 91
92 93
92 94
92 95
96 97
96 98
96 99
100 101
100 102
100 103
104 105
104 106
104 107
108 109
108 110
108 111
112 113
112 114
112 115
116 117
116 118
116 119
120 121
120 122
120 123
124 125
124 126
124 127
128 129
128 130
128 131
132 133
132 134
132 135
136 137
136 138
136 139
140 141
140 142
140 143
144 145
144 146
144 147
148 149
148 150
148 151
152 153
152 154
152 155
156 157
156 158
156 159
160 161
160 162
160 163
164 165
164 166
164 167
168 169
168 170
168 171
172 173
172 174
172 175
176 177
176 178
176 179
180 181
180 182
180 183
184 185
184 186
184 187
188 189
188 190
188 191
192 193
192 194
192 195
196 197
196 198
196 199
200 201
200 202
200 203
204 205
204 206
204 207
208 209
208 210
208 211
212 213
212 214
212 215
216 217
216 218
216 219
220 221
220 222
220 223
224 225
224 226
224 227
228 229
228 230
228 231
232 233
232 234
232 235
236 237
236 238
236 239
240 241
240 242
240 243
244 245
244 246
244 247
248 249
248 250
248 251
252 253
252 254
252 255
